<?xml version="1.0" encoding="UTF-8"?>
<svg width="25px" height="25px" viewBox="0 0 25 25" version="1.1" xmlns="http://www.w3.org/2000/svg" xmlns:xlink="http://www.w3.org/1999/xlink">
    <!-- Generator: Sketch 42 (36781) - http://www.bohemiancoding.com/sketch -->
    <title>icons/i-cart</title>
    <desc>Created with Sketch.</desc>
    <defs></defs>
    <g id="Symbols" stroke="none" stroke-width="1" fill="none" fill-rule="evenodd">
        <g id="icons/i-cart" fill="#687682">
            <path d="M6.40714379,15.3333333 L20.1720269,15.3333333 C20.695578,15.3333333 21.12,15.752539 21.12,16.2777778 C21.12,16.79938 20.7001817,17.2222222 20.1720269,17.2222222 L5.74797313,17.2222222 C5.30271735,17.2222222 4.92915874,16.919023 4.82738764,16.5052595 C4.81572974,16.480162 4.80503772,16.4543247 4.79537424,16.4277745 L0.845092678,5.57446513 C0.666575147,5.08399225 0.915782564,4.54300863 1.40934557,4.36336639 C1.89949137,4.18496791 2.43944528,4.43217127 2.62006763,4.92842709 L6.40714379,15.3333333 Z M4.87736795,7.77777778 C4.87736795,7.25617551 5.29260664,6.83333333 5.81962066,6.83333333 L22.1751152,6.83333333 C22.695507,6.83333333 23.117368,7.252539 23.117368,7.77777778 C23.117368,8.29938004 22.7021293,8.72222222 22.1751152,8.72222222 L5.81962066,8.72222222 C5.29922886,8.72222222 4.87736795,8.30301656 4.87736795,7.77777778 Z M5.88640307,10.6111111 C5.88640307,10.0895088 6.30622132,9.66666667 6.8343762,9.66666667 L21.2584299,9.66666667 C21.781981,9.66666667 22.2064031,10.0858723 22.2064031,10.6111111 C22.2064031,11.1327134 21.7865848,11.5555556 21.2584299,11.5555556 L6.8343762,11.5555556 C6.31082509,11.5555556 5.88640307,11.1363499 5.88640307,10.6111111 Z M6.89543818,13.4444444 C6.89543818,12.9228422 7.31087244,12.5 7.8402624,12.5 L20.350614,12.5 C20.872426,12.5 21.2954382,12.9192057 21.2954382,13.4444444 C21.2954382,13.9660467 20.8800039,14.3888889 20.350614,14.3888889 L7.8402624,14.3888889 C7.31845039,14.3888889 6.89543818,13.9696832 6.89543818,13.4444444 Z M8.5,21 C7.67157288,21 7,20.3284271 7,19.5 C7,18.6715729 7.67157288,18 8.5,18 C9.32842712,18 10,18.6715729 10,19.5 C10,20.3284271 9.32842712,21 8.5,21 Z M17.5,21 C16.6715729,21 16,20.3284271 16,19.5 C16,18.6715729 16.6715729,18 17.5,18 C18.3284271,18 19,18.6715729 19,19.5 C19,20.3284271 18.3284271,21 17.5,21 Z" id="Combined-Shape"></path>
        </g>
    </g>
</svg>