<?xml version="1.0" encoding="UTF-8"?>
<svg width="25px" height="25px" viewBox="0 0 25 25" version="1.1" xmlns="http://www.w3.org/2000/svg" xmlns:xlink="http://www.w3.org/1999/xlink">
    <!-- Generator: Sketch 42 (36781) - http://www.bohemiancoding.com/sketch -->
    <title>icons/i-plus</title>
    <desc>Created with Sketch.</desc>
    <defs></defs>
    <g id="Symbols" stroke="none" stroke-width="1" fill="none" fill-rule="evenodd">
        <g id="icons/i-plus" fill="#687682">
            <path d="M11.1963181,12.8869292 L3.97506023,20.108187 C3.67688845,20.4063588 3.67899867,20.8767329 3.97041817,21.1681524 C4.26386938,21.4616037 4.73640034,21.4574936 5.03038357,21.1635104 L12.2516414,13.9422525 L19.4728993,21.1635104 C19.7710711,21.4616822 20.2414452,21.4595719 20.5328647,21.1681524 C20.8263159,20.8747012 20.8222059,20.4021703 20.5282227,20.108187 L13.3069648,12.8869292 L20.5282227,5.66567128 C20.8263945,5.36749949 20.8242842,4.89712537 20.5328647,4.60570587 C20.2394135,4.31225465 19.7668826,4.3163647 19.4728993,4.61034793 L12.2516414,11.8316058 L5.03038357,4.61034793 C4.73221179,4.31217615 4.26183766,4.31428638 3.97041817,4.60570587 C3.67696695,4.89915709 3.68107699,5.37168804 3.97506023,5.66567128 L11.1963181,12.8869292 Z" id="Combined-Shape" transform="translate(12.251641, 12.886929) rotate(45.000000) translate(-12.251641, -12.886929) "></path>
        </g>
    </g>
</svg>